Coordinates
version=1
nRows=18
nColumns=22
inDegrees=yes

Units are S.I. units (second, meters, Newtons, ...)
If the header above contains a line with 'inDegrees', this indicates whether rotational values are in degrees (yes) or radians (no).

endheader
time	pelvis_tilt	pelvis_list	pelvis_rotation	pelvis_tx	pelvis_ty	pelvis_tz	hip_flexion_r	hip_adduction_r	hip_rotation_r	knee_angle_r	ankle_angle_r	subtalar_angle_r	hip_flexion_l	hip_adduction_l	hip_rotation_l	knee_angle_l	ankle_angle_l	subtalar_angle_l	lumbar_extension	lumbar_bending	lumbar_rotation
      1.52000000	      2.37886994	     -3.61558313	     -6.07260039	      1.04408769	      0.92877662	      0.19969761	     -1.92620611	      5.13794119	      3.34720224	    -11.44623762	      4.61958675	     -0.92996588	     -1.99336017	     -5.52363837	    -13.84407651	    -14.05480921	      9.17374543	      0.77289297	     -6.58923131	     -0.71643771	      2.92263713
      1.53000000	      2.30945161	     -3.64290873	     -6.06449961	      1.04265129	      0.92857882	      0.20059438	     -1.52321670	      5.29169038	      3.29115979	    -11.89934498	      4.63707217	     -1.24195463	     -1.50093237	     -5.69766969	    -13.70512548	    -14.68825146	      9.25270416	      0.74238032	     -6.72207723	     -0.72036492	      2.99761365
      1.54000000	      2.21154043	     -3.67170096	     -6.03897573	      1.04109052	      0.92831740	      0.20152777	     -1.06885719	      5.45664198	      3.22876750	    -12.37864649	      4.64766713	     -1.57417561	     -0.93528910	     -5.88400015	    -13.51883341	    -15.37600955	      9.32077103	      0.69689339	     -6.84033695	     -0.72024720	      3.05512964
      1.55000000	      2.10643084	     -3.70324810	     -5.98122539	      1.03942438	      0.92801546	      0.20247135	     -0.60535048	      5.62735256	      3.13309893	    -12.84547367	      4.66382205	     -1.89075489	     -0.30082307	     -6.08543806	    -13.28768295	    -16.15328342	      9.40188345	      0.64129095	     -6.96768750	     -0.71858948	      3.11328892
      1.56000000	      1.96865099	     -3.72553824	     -5.90504776	      1.03763819	      0.92764275	      0.20343726	     -0.08930330	      5.79370130	      3.00882734	    -13.32605997	      4.68277342	     -2.22379921	      0.42877215	     -6.28837128	    -13.02051000	    -17.01276591	      9.44005771	      0.56870675	     -7.07342239	     -0.72728956	      3.17959692
      1.57000000	      1.83326050	     -3.76865186	     -5.77952728	      1.03573415	      0.92723846	      0.20437914	      0.42687237	      5.98247348	      2.84837191	    -13.79895513	      4.69261232	     -2.51572060	      1.22175226	     -6.51910961	    -12.66772534	    -17.96012982	      9.52614940	      0.49485615	     -7.20427558	     -0.70905006	      3.19832058
      1.58000000	      1.65396990	     -3.79645154	     -5.62948321	      1.03369429	      0.92674465	      0.20532173	      1.01145983	      6.15771534	      2.65325477	    -14.28776630	      4.70925787	     -2.82374018	      2.13322686	     -6.74326185	    -12.27718871	    -18.99744284	      9.55394623	      0.40937410	     -7.30196620	     -0.70750583	      3.22571389
      1.59000000	      1.45377601	     -3.82148928	     -5.44240456	      1.03152561	      0.92618837	      0.20623520	      1.63203669	      6.32857320	      2.41983737	    -14.78112754	      4.72421087	     -3.12579851	      3.13726616	     -6.96734415	    -11.83966872	    -20.11867797	      9.55317763	      0.32413627	     -7.39630080	     -0.70688292	      3.23963952
      1.60000000	      1.23712506	     -3.84449229	     -5.21670463	      1.02923442	      0.92557185	      0.20711190	      2.28461207	      6.49272381	      2.14251117	    -15.28046516	      4.74040555	     -3.41598738	      4.22980493	     -7.19000868	    -11.35706819	    -21.32338181	      9.52417909	      0.25080541	     -7.48927090	     -0.70710079	      3.23882323
      1.61000000	      1.00098049	     -3.86185663	     -4.95423416	      1.02682505	      0.92488161	      0.20795492	      2.97418424	      6.64595336	      1.82489922	    -15.79054319	      4.76017895	     -3.69957647	      5.41181292	     -7.40573638	    -10.83936613	    -22.60720116	      9.46635717	      0.20103731	     -7.57562600	     -0.71367683	      3.22833476
      1.62000000	      0.76505252	     -3.88541367	     -4.64752841	      1.02431368	      0.92414427	      0.20871594	      3.67450240	      6.79283912	      1.45204967	    -16.30276121	      4.78821275	     -3.96515160	      6.65402484	     -7.61864821	    -10.28931269	    -23.95562417	      9.38495212	      0.19172046	     -7.67678864	     -0.70766899	      3.19453310
      1.63000000	      0.52983316	     -3.90324771	     -4.31546507	      1.02169968	      0.92334647	      0.20943843	      4.39403128	      6.92329967	      1.05155399	    -16.83543570	      4.82713252	     -4.22386293	      7.94820917	     -7.81751401	     -9.72731913	    -25.36879917	      9.28124397	      0.23714384	     -7.78831337	     -0.70967573	      3.15391447
      1.64000000	      0.31078871	     -3.92299956	     -3.95488927	      1.01901692	      0.92250492	      0.21010011	      5.10776722	      7.04124907	      0.61657102	    -17.37725357	      4.88252889	     -4.47249654	      9.26520486	     -8.00456969	     -9.15327839	    -26.83563256	      9.16864857	      0.35175132	     -7.92141079	     -0.70999681	      3.10368811
      1.65000000	      0.12278287	     -3.94259609	     -3.57682313	      1.01626594	      0.92163352	      0.21069584	      5.80200928	      7.14230809	      0.16059447	    -17.93366881	      4.95918466	     -4.71150178	     10.57736840	     -8.17510008	     -8.58108775	    -28.35423432	      9.05508403	      0.54662809	     -8.09090424	     -0.70922749	      3.05025509
      1.66000000	     -0.02837262	     -3.96117241	     -3.19477913	      1.01346507	      0.92073820	      0.21124652	      6.46994517	      7.22751120	     -0.30232746	    -18.50724570	      5.05653915	     -4.94495164	     11.86370158	     -8.32651859	     -8.00876652	    -29.92643082	      8.95698087	      0.83021092	     -8.29470457	     -0.71150931	      2.99425489
      1.67000000	     -0.15716700	     -3.96435568	     -2.85400932	      1.01061520	      0.91979881	      0.21180422	      7.13912116	      7.28637994	     -0.73852796	    -19.12126493	      5.15412231	     -5.20069862	     13.11958963	     -8.45665223	     -7.49917225	    -31.56022876	      8.87394738	      1.23523167	     -8.50870971	     -0.73650523	      2.98757500
      1.68000000	     -0.19355875	     -3.97747641	     -2.49086541	      1.00775986	      0.91892409	      0.21225659	      7.70094918	      7.33409522	     -1.19541195	    -19.71750893	      5.27627889	     -5.41473465	     14.26800234	     -8.56197627	     -6.93986035	    -33.26103857	      8.83780081	      1.69006553	     -8.81053332	     -0.74608284	      2.93639176
      1.69000000	     -0.17697247	     -3.98489615	     -2.16601725	      1.00488767	      0.91806065	      0.21270119	      8.21077356	      7.36866735	     -1.60080471	    -20.32357272	      5.43899958	     -5.62398525	     15.33390156	     -8.64842495	     -6.41082657	    -35.05188317	      8.83678226	      2.22141394	     -9.14606787	     -0.76520998	      2.90574113
